HIERARCHY
ROOT Hips
{
	OFFSET 0.00000 0.00000 0.00000
	CHANNELS 6 Xposition Yposition Zposition Zrotation Yrotation Xrotation 
	JOINT LHipJoint
	{
		OFFSET 0 0 0
		CHANNELS 3 Zrotation Yrotation Xrotation
		JOINT LeftHip
		{
			OFFSET 1.77779 -1.88989 0.48267
			CHANNELS 3 Zrotation Yrotation Xrotation
			JOINT LeftKnee
			{
				OFFSET 2.53442 -6.96327 0.00000
				CHANNELS 3 Zrotation Yrotation Xrotation
				JOINT LeftAnkle
				{
					OFFSET 2.71068 -7.44755 0.00000
					CHANNELS 3 Zrotation Yrotation Xrotation
					JOINT LeftToe
					{
						OFFSET 0.17992 -0.49431 2.22524
						CHANNELS 3 Zrotation Yrotation Xrotation
						End Site
						{
							OFFSET 0.00000 -0.00000 1.14687
						}
					}
				}
			}
		}
	}
	JOINT RHipJoint
	{
		OFFSET 0 0 0
		CHANNELS 3 Zrotation Yrotation Xrotation
		JOINT RightHip
		{
			OFFSET -1.58469 -1.88989 0.48267
			CHANNELS 3 Zrotation Yrotation Xrotation
			JOINT RightKnee
			{
				OFFSET -2.60386 -7.15404 0.00000
				CHANNELS 3 Zrotation Yrotation Xrotation
				JOINT RightAnkle
				{
					OFFSET -2.73334 -7.50979 0.00000
					CHANNELS 3 Zrotation Yrotation Xrotation
					JOINT RightToe
					{
						OFFSET -0.25618 -0.70384 2.21822
						CHANNELS 3 Zrotation Yrotation Xrotation
						End Site
						{
							OFFSET -0.00000 -0.00000 1.16381
						}
					}
				}
			}
		}
	}
	JOINT lowerback
	{
		OFFSET 0 0 0
		CHANNELS 3 Zrotation Yrotation Xrotation
		JOINT Chest
		{
			OFFSET 0.03410 2.01612 -0.22230
			CHANNELS 3 Zrotation Yrotation Xrotation
			JOINT Chest2
			{
				OFFSET 0.03465 2.03012 0.00937
				CHANNELS 3 Zrotation Yrotation Xrotation
				JOINT lowerneck
				{
					OFFSET 0 0 0
					CHANNELS 3 Zrotation Yrotation Xrotation
					JOINT Neck
					{
						OFFSET -0.00219 1.70459 0.20857
						CHANNELS 3 Zrotation Yrotation Xrotation
						JOINT Head
						{
							OFFSET 0.02518 1.72339 -0.22179
							CHANNELS 3 Zrotation Yrotation Xrotation
							End Site
							{
								OFFSET 0.00282 1.74122 -0.09823
							}
						}
					}
				}
				JOINT LeftCollar
				{
					OFFSET 0 0 0
					CHANNELS 3 Zrotation Yrotation Xrotation
					JOINT LeftShoulder
					{
						OFFSET 3.36358 1.00547 -0.37661
CHANNELS 3 Zrotation Xrotation Yrotation
						JOINT LeftElbow
						{
OFFSET 0 -5.065070 0.000000
CHANNELS 3 Zrotation Xrotation Yrotation
							JOINT LeftWrist
							{
OFFSET 0 -3.601960 0.000000
CHANNELS 3 Zrotation Xrotation Yrotation
								JOINT lhand
								{
									OFFSET 0 0 0
CHANNELS 3 Zrotation Xrotation Yrotation
									JOINT LFingers
									{
OFFSET 0 -0.450350 0.000000
CHANNELS 3 Zrotation Xrotation Yrotation
										End Site
										{
OFFSET 0 -0.363080 0.000000
										}
									}
								}
								JOINT LThumb
								{
OFFSET 0 0.000000 0.000000
CHANNELS 3 Zrotation Xrotation Yrotation
									End Site
									{
OFFSET 0 -0.368620 0.368620
									}
								}
							}
						}
					}
				}
				JOINT RightCollar
				{
					OFFSET 0 0 0
					CHANNELS 3 Zrotation Yrotation Xrotation
					JOINT RightShoulder
					{
						OFFSET -3.50159 0.80383 -0.71526
CHANNELS 3 Zrotation Xrotation Yrotation
						JOINT RightElbow
						{
OFFSET 0 -5.363940 0.000000
CHANNELS 3 Zrotation Xrotation Yrotation
							JOINT RightWrist
							{
OFFSET 0 -3.580350 0.000000
CHANNELS 3 Zrotation Xrotation Yrotation
								JOINT rhand
								{
									OFFSET 0 0 0
CHANNELS 3 Zrotation Xrotation Yrotation
									JOINT RFingers
									{
OFFSET 0 -0.663750 0.000000
CHANNELS 3 Zrotation Xrotation Yrotation
										End Site
										{
OFFSET 0 -0.535130 0.000000
										}
									}
								}
								JOINT RThumb
								{
OFFSET 0 0.000000 0.000000
CHANNELS 3 Zrotation Xrotation Yrotation
									End Site
									{
OFFSET 0 -0.543300 0.543300
									}
								}
							}
						}
					}
				}
			}
		}
	}
}
MOTION
Frames: 5
Frame Time: 0.008333333333333333
0.706697 17.533281 5.677351 -1.160663 -7.029655 2.360260 0.000000 0.000000 0.000000 -20.282557 4.218514 -0.831455 16.605093 19.704584 80.021072 0.502256 -10.873373 21.437612 0.151482 -2.499283 -6.888054 0.000000 0.000000 0.000000 26.935423 16.420941 -29.074414 -5.287058 -13.693402 42.035640 -0.059753 7.810798 -6.557578 -0.538330 -4.695302 13.042543 -0.159417 -0.658159 16.915396 1.661938 -0.744943 -0.019114 2.077404 -0.304692 -9.514970 -1.906746 -3.276437 -20.791659 1.740694 -4.228965 14.635508 0.351174 -1.933082 8.011385 0.000000 0.000000 0.000000 0.373422 11.906212 -42.279393 126.688860 -54.246391 91.159543 15.595451 -44.042856 4.200297 0.000000 0.000000 0.000000 -7.125000 0.000000 0.000000 -8.373216 25.674955 -4.069109 0.000000 0.000000 0.000000 -1.666836 25.887693 42.972230 -118.383808 -56.724533 -84.310681 -42.082918 -42.723892 -41.067272 0.000000 0.000000 0.000000 7.125000 0.000000 0.000000 -2.741992 -19.550144 -3.504871
0.702290 17.498242 5.804153 -1.326989 -6.991166 2.387680 0.000000 0.000000 0.000000 -19.718572 4.242643 -1.672164 17.053478 19.783951 81.352717 0.514068 -10.354619 21.014736 0.137546 -2.386550 -6.575363 0.000000 0.000000 0.000000 27.239169 16.541824 -28.905141 -5.441174 -13.861507 42.690619 -0.106258 7.701595 -7.411135 -0.567290 -4.821706 13.401129 -0.056850 -0.625377 16.931588 1.730714 -0.674229 -0.040641 2.077112 -0.273476 -9.550911 -1.885537 -3.277711 -20.799277 1.685482 -4.226894 14.674024 0.329222 -1.936347 8.023754 0.000000 0.000000 0.000000 0.338065 12.049737 -42.357380 126.580480 -54.284774 91.071628 16.494053 -43.625368 0.943690 0.000000 0.000000 0.000000 -7.125000 0.000000 0.000000 -7.869247 28.982766 -3.141627 0.000000 0.000000 0.000000 -1.632408 25.542379 43.048890 -118.161925 -56.779798 -84.125243 -41.904753 -42.638977 -40.956715 0.000000 0.000000 0.000000 7.125000 0.000000 0.000000 -2.696177 -19.362131 -3.440714
0.700044 17.469437 5.931920 -1.381311 -6.891783 2.411861 0.000000 0.000000 0.000000 -19.341114 4.149630 -2.486663 17.476750 19.838745 82.601823 0.515606 -9.867441 20.544430 0.127488 -2.299126 -6.333154 0.000000 0.000000 0.000000 27.421633 16.582228 -28.757841 -5.592263 -14.018045 43.316541 -0.162924 7.476412 -8.265411 -0.580445 -4.878593 13.562603 -0.005769 -0.602395 16.936867 1.757836 -0.630690 -0.059976 2.067249 -0.254023 -9.577069 -1.849325 -3.298847 -20.827134 1.619865 -4.253308 14.687344 0.297568 -1.953339 8.030905 0.000000 0.000000 0.000000 0.301726 12.228388 -42.459696 126.492190 -54.315812 90.999943 17.062155 -43.365678 -1.243997 0.000000 0.000000 0.000000 -7.125000 0.000000 0.000000 -7.591888 31.234221 -2.583534 0.000000 0.000000 0.000000 -1.574830 25.163886 43.096149 -117.948451 -56.831807 -83.946594 -41.819712 -42.645616 -40.879043 0.000000 0.000000 0.000000 7.125000 0.000000 0.000000 -2.682870 -19.247233 -3.420305
0.699141 17.444512 6.060288 -1.365915 -6.754496 2.434026 0.000000 0.000000 0.000000 -19.079759 3.983702 -3.284849 17.884390 19.878242 83.799552 0.510748 -9.399917 20.044602 0.119843 -2.227457 -6.134815 0.000000 0.000000 0.000000 27.528607 16.572540 -28.624217 -5.741468 -14.167383 43.924378 -0.225913 7.179037 -9.120136 -0.583763 -4.892210 13.601384 0.013263 -0.585513 16.935354 1.759031 -0.604066 -0.077947 2.051429 -0.241892 -9.597136 -1.803775 -3.332346 -20.867587 1.547770 -4.297451 14.684981 0.259875 -1.978874 8.034807 0.000000 0.000000 0.000000 0.264776 12.428903 -42.577154 126.416407 -54.342276 90.938361 17.424537 -43.204210 -2.766336 0.000000 0.000000 0.000000 -7.125000 0.000000 0.000000 -7.455584 32.828150 -2.255367 0.000000 0.000000 0.000000 -1.502842 24.764740 43.125109 -117.740212 -56.881790 -83.772172 -41.792637 -42.709243 -40.821840 0.000000 0.000000 0.000000 7.125000 0.000000 0.000000 -2.689798 -19.177847 -3.427127
0.698239 17.419587 6.188656 -1.350520 -6.617209 2.456190 0.000000 0.000000 0.000000 -18.818404 3.817774 -4.083034 18.292030 19.917740 84.997281 0.505891 -8.932393 19.544774 0.112199 -2.155787 -5.936476 0.000000 0.000000 0.000000 27.635580 16.562851 -28.490593 -5.890673 -14.316721 44.532215 -0.288903 6.881662 -9.974860 -0.587081 -4.905827 13.640165 0.032295 -0.568630 16.933841 1.760225 -0.577443 -0.095917 2.035608 -0.229762 -9.617204 -1.758225 -3.365845 -20.908040 1.475676 -4.341594 14.682619 0.222182 -2.004410 8.038709 0.000000 0.000000 0.000000 0.227827 12.629418 -42.694612 126.340623 -54.368741 90.876778 17.786919 -43.042741 -4.288674 0.000000 0.000000 0.000000 -7.125000 0.000000 0.000000 -7.319279 34.422078 -1.927201 0.000000 0.000000 0.000000 -1.430854 24.365594 43.154069 -117.531972 -56.931773 -83.597750 -41.765562 -42.772869 -40.764637 0.000000 0.000000 0.000000 7.125000 0.000000 0.000000 -2.696726 -19.108460 -3.433948
